<svg id="Layer_1" data-name="Layer 1" xmlns="http://www.w3.org/2000/svg" viewBox="0 0 418.92 135.95"><defs><style>.cls-1{fill:#575756;}.cls-2{fill:#a399c0;}.cls-3{fill:#ededed;}.cls-4{fill:#f5815a;}</style></defs><rect class="cls-1" x="178.47" y="116.91" width="0.97" height="0.97"/><path class="cls-1" d="M221.24,415.71h-1.86v-1h1.86Zm-3.71,0h-1.86v-1h1.86Zm-3.72,0H212v-1h1.86Zm-3.71,0h-1.86v-1h1.86Zm-3.72,0h-1.86v-1h1.86Zm-3.72,0h-1.85v-1h1.85Zm-3.71,0h-1.86v-1H199Z" transform="translate(-15.79 -297.83)"/><rect class="cls-1" x="207.31" y="116.91" width="0.97" height="0.97"/><path class="cls-1" d="M227.2,418.84a3.62,3.62,0,1,1,3.61-3.61A3.62,3.62,0,0,1,227.2,418.84Zm0-6.25a2.64,2.64,0,1,0,2.64,2.64A2.64,2.64,0,0,0,227.2,412.59Z" transform="translate(-15.79 -297.83)"/><path class="cls-1" d="M192.34,417.63a2.41,2.41,0,1,1,2.41-2.4A2.41,2.41,0,0,1,192.34,417.63Zm0-3.84a1.44,1.44,0,1,0,1.44,1.44A1.44,1.44,0,0,0,192.34,413.79Z" transform="translate(-15.79 -297.83)"/><path class="cls-1" d="M261.19,417.63a2.41,2.41,0,1,1,2.4-2.4A2.41,2.41,0,0,1,261.19,417.63Zm0-3.84a1.44,1.44,0,1,0,0,2.87,1.44,1.44,0,0,0,0-2.87Z" transform="translate(-15.79 -297.83)"/><rect class="cls-1" x="214.54" y="116.91" width="0.97" height="0.97"/><path class="cls-1" d="M256.22,415.71h-2.08v-1h2.08Zm-4.16,0H250v-1h2.07Zm-4.15,0h-2.08v-1h2.08Zm-4.15,0h-2.08v-1h2.08Zm-4.16,0h-2.07v-1h2.07Zm-4.15,0h-2.08v-1h2.08Z" transform="translate(-15.79 -297.83)"/><rect class="cls-1" x="242.51" y="116.91" width="0.97" height="0.97"/><rect class="cls-1" x="173.66" y="116.91" width="0.97" height="0.97"/><rect class="cls-1" x="170.62" y="116.91" width="0.97" height="0.97"/><rect class="cls-1" x="247.32" y="116.91" width="0.97" height="0.97"/><rect class="cls-1" x="250.41" y="116.91" width="0.97" height="0.97"/><rect class="cls-1" x="210.93" y="113.3" width="0.97" height="0.97"/><path class="cls-1" d="M227.69,409.54h-1V408h1Zm0-3.17h-1v-1.58h1Z" transform="translate(-15.79 -297.83)"/><rect class="cls-1" x="210.93" y="104.4" width="0.97" height="0.97"/><rect class="cls-1" x="172.14" y="59.85" width="0.97" height="0.97"/><path class="cls-1" d="M188.9,355.71h-1v-2h1Zm0-3.93h-1v-2h1Zm0-3.93h-1v-2h1Zm0-3.93h-1v-2h1Zm0-3.93h-1v-2h1Zm0-3.93h-1v-2h1Zm0-3.93h-1v-2h1Zm0-3.93h-1v-2h1Zm0-3.93h-1v-2h1Zm0-3.93h-1v-2h1Zm0-3.93h-1v-2h1Zm0-3.93h-1v-2h1Z" transform="translate(-15.79 -297.83)"/><rect class="cls-1" x="172.14" y="9.75" width="0.97" height="0.97"/><path class="cls-1" d="M188.41,308.07a2.87,2.87,0,1,1,2.87-2.87A2.87,2.87,0,0,1,188.41,308.07Zm0-4.75a1.89,1.89,0,1,0,1.89,1.88A1.89,1.89,0,0,0,188.41,303.32Z" transform="translate(-15.79 -297.83)"/><path class="cls-1" d="M289.54,345a2.87,2.87,0,1,1,2.86-2.86A2.87,2.87,0,0,1,289.54,345Zm0-4.75a1.89,1.89,0,1,0,1.89,1.89A1.89,1.89,0,0,0,289.54,340.27Z" transform="translate(-15.79 -297.83)"/><rect class="cls-1" x="299.71" y="103.92" width="0.97" height="0.97"/><rect class="cls-1" x="294.83" y="103.92" width="2.44" height="0.97"/><polygon class="cls-1" points="291.9 105.36 290.93 105.36 290.93 104.39 291.42 104.39 291.42 103.92 292.39 103.92 292.39 104.89 291.9 104.89 291.9 105.36"/><path class="cls-1" d="M307.69,412h-1v-2.21h1Zm0-4.43h-1V405.4h1Z" transform="translate(-15.79 -297.83)"/><polygon class="cls-1" points="291.9 117.89 290.44 117.89 290.44 116.91 290.93 116.91 290.93 116.43 291.9 116.43 291.9 117.89"/><path class="cls-1" d="M304.4,415.71h-1.84v-1h1.84Zm-3.67,0h-1.84v-1h1.84Zm-3.67,0h-1.84v-1h1.84Z" transform="translate(-15.79 -297.83)"/><rect class="cls-1" x="276.63" y="116.91" width="0.97" height="0.97"/><path class="cls-1" d="M266.15,425h-1.94v-1h1.94Zm-3.89,0h-1.94v-1h1.94Zm-3.89,0h-1.94v-1h1.94Zm-3.89,0h-1.94v-1h1.94Zm-3.89,0h-1.94v-1h1.94Zm-3.89,0h-1.94v-1h1.94Zm-3.89,0h-1.94v-1h1.94Zm-3.89,0H237v-1h1.94ZM235,425h-1.94v-1H235Zm-3.89,0H229.2v-1h1.94Zm-3.89,0h-1.94v-1h1.94Zm-3.89,0h-1.94v-1h1.94Zm-3.89,0h-1.94v-1h1.94Zm-3.89,0h-1.94v-1h1.94Zm-3.89,0h-1.94v-1h1.94Zm-3.89,0h-1.94v-1h1.94Zm-3.89,0H202v-1h1.94ZM200,425h-1.94v-1H200Zm-3.89,0h-1.94v-1h1.94Zm-3.89,0H190.3v-1h1.94Zm-3.89,0h-1.94v-1h1.94Z" transform="translate(-15.79 -297.83)"/><path class="cls-1" d="M287.16,342.64h-1.73v-1h1.73Zm-3.68,0h-1.94v-1h1.94Zm-3.89,0h-1.94v-1h1.94Zm-3.89,0h-1.94v-1h1.94Zm-3.89,0h-1.94v-1h1.94Zm-3.89,0H266v-1h1.94Zm-3.89,0h-1.94v-1H264Z" transform="translate(-15.79 -297.83)"/><path class="cls-1" d="M310.33,353H309.2v-1h1.13Zm-3.08,0h-1.94v-1h1.94Zm-3.89,0h-1.94v-1h1.94Zm-3.89,0h-1.94v-1h1.94Zm-3.89,0h-1.94v-1h1.94Zm-3.89,0h-1.94v-1h1.94Zm-3.89,0h-1.94v-1h1.94Zm-3.89,0H282v-1h1.94ZM280,353h-1.94v-1H280Zm-3.89,0h-1.94v-1h1.94Zm-3.89,0H270.3v-1h1.94Zm-3.89,0h-1.94v-1h1.94Z" transform="translate(-15.79 -297.83)"/><path class="cls-1" d="M374,341.18a2.86,2.86,0,1,1,2.86-2.86A2.87,2.87,0,0,1,374,341.18Zm0-4.75a1.89,1.89,0,1,0,1.88,1.89A1.89,1.89,0,0,0,374,336.43Z" transform="translate(-15.79 -297.83)"/><path class="cls-1" d="M374.43,365.77h-1v-1.94h1Zm0-3.89h-1v-1.94h1Zm0-3.89h-1v-1.94h1Zm0-3.89h-1v-1.94h1Zm0-3.89h-1v-1.94h1Zm0-3.89h-1v-1.94h1Zm0-3.89h-1V340.7h1Z" transform="translate(-15.79 -297.83)"/><path class="cls-1" d="M66.26,344.65a2.86,2.86,0,1,1,2.86-2.86A2.86,2.86,0,0,1,66.26,344.65Zm0-4.75a1.89,1.89,0,1,0,1.89,1.89A1.89,1.89,0,0,0,66.26,339.9Z" transform="translate(-15.79 -297.83)"/><path class="cls-1" d="M31.22,375.11h-1c0-.66,0-1.32.05-2l1,.06C31.24,373.83,31.22,374.47,31.22,375.11Zm.22-3.82-1-.12c.08-.65.17-1.3.29-1.95l1,.17C31.61,370,31.51,370.65,31.44,371.29Zm.66-3.77-.94-.23c.15-.64.32-1.28.51-1.9l.93.28C32.42,366.28,32.25,366.89,32.1,367.52Zm1.11-3.68-.91-.33c.22-.62.47-1.23.73-1.83l.89.39C33.67,362.65,33.43,363.24,33.21,363.84Zm1.53-3.51-.87-.44c.3-.59.61-1.17,1-1.73l.84.49C35.33,359.2,35,359.76,34.74,360.33ZM36.67,357l-.81-.54c.37-.55.75-1.09,1.14-1.61l.78.58C37.39,356,37,356.49,36.67,357ZM39,354l-.74-.63c.43-.51.87-1,1.32-1.47l.71.67C39.81,353,39.39,353.47,39,354Zm2.65-2.78-.66-.71c.48-.44,1-.88,1.48-1.3l.62.75C42.56,350.33,42.09,350.75,41.62,351.18Zm3-2.44L44,348c.53-.39,1.07-.77,1.62-1.13l.53.82C45.6,348,45.08,348.36,44.57,348.74Zm3.2-2.09-.48-.84c.57-.33,1.15-.63,1.74-.92l.43.87C48.89,346,48.33,346.34,47.77,346.65ZM51.2,345l-.38-.89c.61-.26,1.22-.5,1.84-.72l.32.92C52.38,344.48,51.79,344.71,51.2,345Zm3.61-1.28-.27-.93c.63-.19,1.26-.35,1.91-.5l.21.95C56,343.34,55.42,343.5,54.81,343.68Zm3.73-.85-.16-1c.65-.1,1.3-.19,2-.26l.1,1C59.8,342.64,59.17,342.73,58.54,342.83Zm3.81-.4-.05-1c.54,0,1.08,0,1.64,0v1C63.42,342.4,62.88,342.4,62.35,342.43Z" transform="translate(-15.79 -297.83)"/><rect class="cls-1" x="17.85" y="42.26" width="0.97" height="0.97"/><path class="cls-1" d="M34.61,347.48h-1v-1.6h1Zm0-3.21h-1v-1.6h1Z" transform="translate(-15.79 -297.83)"/><rect class="cls-1" x="17.85" y="51.26" width="0.97" height="0.97"/><path class="cls-2" d="M35.92,338.29a1.8,1.8,0,1,1-1.8-1.8A1.81,1.81,0,0,1,35.92,338.29Z" transform="translate(-15.79 -297.83)"/><rect class="cls-1" x="12.23" y="20.64" width="0.97" height="0.97"/><path class="cls-1" d="M29,325.86H28v-1.6h1Zm0-3.21H28v-1.6h1Z" transform="translate(-15.79 -297.83)"/><rect class="cls-1" x="12.23" y="29.64" width="0.97" height="0.97"/><path class="cls-2" d="M30.31,330.24a1.8,1.8,0,1,1-1.8-1.8A1.81,1.81,0,0,1,30.31,330.24Z" transform="translate(-15.79 -297.83)"/><rect class="cls-1" x="6.62" y="78.43" width="0.97" height="0.97"/><path class="cls-1" d="M23.38,374.25h-1v-2h1Zm0-4h-1v-2h1Zm0-4h-1v-2h1Zm0-4h-1v-2h1Zm0-4h-1v-2h1Zm0-4h-1v-2h1Zm0-4h-1v-2h1Zm0-4h-1v-2h1Zm0-4h-1v-2h1Zm-1.75-3.61-.87-1.8.88-.42.87,1.8ZM19.89,335l-.87-1.8.88-.42.87,1.8Zm-1.74-3.61-.86-1.8.87-.42L19,331Zm-.38-3.92h-1v-2h1Zm0-4h-1v-2h1Z" transform="translate(-15.79 -297.83)"/><rect class="cls-1" x="1.01" y="20.64" width="0.97" height="0.97"/><rect class="cls-1" x="12.23" y="62.22" width="0.97" height="0.97"/><path class="cls-1" d="M29,358.05H28v-2h1Zm0-4H28v-2h1Zm0-4H28v-2h1Zm0-4H28v-2h1Zm0-4H28v-2h1Zm-1.78-3.58-.87-1.79.88-.43.87,1.8Zm-1.73-3.59-.87-1.8.88-.42.86,1.8Zm-1.73-3.59-.87-1.8.88-.42.86,1.79Zm-.37-3.91h-1v-2h1Zm0-4h-1v-2h1Z" transform="translate(-15.79 -297.83)"/><rect class="cls-1" x="6.62" y="20.64" width="0.97" height="0.97"/><path class="cls-2" d="M19.39,338.29a1.8,1.8,0,1,1-1.8-1.8A1.81,1.81,0,0,1,19.39,338.29Z" transform="translate(-15.79 -297.83)"/><rect class="cls-1" x="1.31" y="42.26" width="0.97" height="0.97"/><path class="cls-1" d="M18.07,386.11h-1v-1.88h1Zm0-3.76h-1v-1.87h1Zm0-3.75h-1v-1.88h1Zm0-3.75h-1V373h1Zm0-3.76h-1v-1.88h1Zm0-3.75h-1v-1.88h1Zm0-3.76h-1v-1.87h1Zm0-3.75h-1V358h1Zm0-3.75h-1V354.2h1Zm0-3.76h-1v-1.88h1Zm0-3.75h-1v-1.88h1Zm0-3.76h-1v-1.87h1Z" transform="translate(-15.79 -297.83)"/><rect class="cls-1" x="1.31" y="90.16" width="0.97" height="0.97"/><path class="cls-2" d="M41.53,330.24a1.8,1.8,0,1,1-1.8-1.8A1.8,1.8,0,0,1,41.53,330.24Z" transform="translate(-15.79 -297.83)"/><rect class="cls-1" x="23.46" y="29.64" width="0.97" height="0.97"/><rect class="cls-1" x="23.46" y="27.61" width="0.97" height="1.01"/><polygon class="cls-1" points="24.43 26.6 23.46 26.6 23.46 26.11 22.97 26.11 22.97 25.14 24.43 25.14 24.43 26.6"/><rect class="cls-1" x="20.53" y="25.14" width="1.22" height="0.97"/><polygon class="cls-1" points="19.31 26.11 17.85 26.11 17.85 24.66 18.82 24.66 18.82 25.14 19.31 25.14 19.31 26.11"/><rect class="cls-1" x="17.85" y="22.63" width="0.97" height="1.01"/><rect class="cls-1" x="17.85" y="20.64" width="0.97" height="0.97"/><path class="cls-3" d="M203.79,404.09a6.69,6.69,0,1,1-6.69-6.68A6.68,6.68,0,0,1,203.79,404.09Z" transform="translate(-15.79 -297.83)"/><circle class="cls-3" cx="61.71" cy="81.66" r="6.68"/><path class="cls-3" d="M140.9,370.7a4,4,0,1,1-4-4A4,4,0,0,1,140.9,370.7Z" transform="translate(-15.79 -297.83)"/><path class="cls-3" d="M83.32,418.4a4,4,0,1,1-4-4A4,4,0,0,1,83.32,418.4Z" transform="translate(-15.79 -297.83)"/><circle class="cls-3" cx="26.61" cy="67.69" r="5.67"/><circle class="cls-3" cx="258.77" cy="403.23" r="7.56" transform="translate(-225.12 3.25) rotate(-45)"/><path class="cls-3" d="M176.26,345a3.86,3.86,0,1,0,3.86-3.86A3.85,3.85,0,0,0,176.26,345Z" transform="translate(-15.79 -297.83)"/><path class="cls-3" d="M304.47,373.16a5.92,5.92,0,1,0,5.92-5.92A5.92,5.92,0,0,0,304.47,373.16Z" transform="translate(-15.79 -297.83)"/><polygon class="cls-3" points="129.32 105.41 129.32 126.32 120.03 126.32 120.03 132.78 133.31 132.78 133.31 105.41 129.32 105.41"/><rect class="cls-3" x="278.54" y="123.42" width="37.82" height="9.01"/><rect class="cls-3" x="251.38" y="83.89" width="23.56" height="12.8"/><rect class="cls-3" x="29.15" y="32.07" width="16.28" height="8.31"/><rect class="cls-3" x="247.32" y="59.8" width="6.54" height="23.88"/><rect class="cls-3" x="384.51" y="28.44" width="6.54" height="23.88"/><rect class="cls-3" x="361.9" y="124.53" width="14.25" height="7.91"/><rect class="cls-3" x="278.54" y="95.39" width="7.5" height="17.23"/><rect class="cls-3" x="1.8" y="119.32" width="25.89" height="6.42"/><rect class="cls-3" x="181.32" y="108.03" width="25.26" height="4.93"/><rect class="cls-3" x="217.38" y="108.03" width="25.26" height="4.93"/><path class="cls-1" d="M179.54,431.09H157.22a3.76,3.76,0,0,1-3.76-3.76V392.89a3.76,3.76,0,0,1,3.76-3.76h22.32a3.76,3.76,0,0,1,3.76,3.76v34.44A3.76,3.76,0,0,1,179.54,431.09Zm-22.32-41a2.79,2.79,0,0,0-2.79,2.78v34.44a2.79,2.79,0,0,0,2.79,2.79h22.32a2.79,2.79,0,0,0,2.79-2.79V392.89a2.79,2.79,0,0,0-2.79-2.78Z" transform="translate(-15.79 -297.83)"/><rect class="cls-2" x="141.95" y="97.84" width="21.29" height="28.89"/><path class="cls-1" d="M168.38,429.09a1.77,1.77,0,1,1,1.77-1.77A1.77,1.77,0,0,1,168.38,429.09Zm0-2.56a.79.79,0,0,0-.8.79.8.8,0,0,0,1.6,0A.79.79,0,0,0,168.38,426.53Z" transform="translate(-15.79 -297.83)"/><path class="cls-1" d="M168.38,393.92a.82.82,0,1,1,.82-.82A.82.82,0,0,1,168.38,393.92Zm0-1a.15.15,0,0,0-.15.15c0,.17.3.17.3,0A.15.15,0,0,0,168.38,393Z" transform="translate(-15.79 -297.83)"/><path class="cls-1" d="M287.47,431.09h-14a2.4,2.4,0,0,1-2.4-2.4V401.76a2.41,2.41,0,0,1,2.4-2.4h14a2.41,2.41,0,0,1,2.4,2.4v26.93A2.4,2.4,0,0,1,287.47,431.09Zm-14-30.76a1.43,1.43,0,0,0-1.42,1.43v26.93a1.43,1.43,0,0,0,1.42,1.43h14a1.42,1.42,0,0,0,1.42-1.43V401.76a1.42,1.42,0,0,0-1.42-1.43Z" transform="translate(-15.79 -297.83)"/><rect class="cls-2" x="258.39" y="106.92" width="12.6" height="20.72"/><path class="cls-1" d="M280.48,429.17a1.46,1.46,0,1,1,1.46-1.45A1.46,1.46,0,0,1,280.48,429.17Zm0-1.94a.49.49,0,1,0,.49.49A.49.49,0,0,0,280.48,427.23Z" transform="translate(-15.79 -297.83)"/><path class="cls-1" d="M280.48,403.54a.9.9,0,1,1,.9-.9A.9.9,0,0,1,280.48,403.54Zm0-1a.08.08,0,0,0-.08.07c0,.09.16.08.16,0A.08.08,0,0,0,280.48,402.57Z" transform="translate(-15.79 -297.83)"/><path class="cls-1" d="M112,419.79A19.95,19.95,0,1,1,132,399.85,20,20,0,0,1,112,419.79Zm0-38.92a19,19,0,1,0,19,19A19,19,0,0,0,112,380.87Z" transform="translate(-15.79 -297.83)"/><path class="cls-1" d="M136.66,392.37c-.09-.3-.19-.61-.29-.91l.92-.31c.1.31.21.63.3.94Z" transform="translate(-15.79 -297.83)"/><path class="cls-1" d="M111.77,426.56c-.67,0-1.34,0-2-.09l.08-1c.64.05,1.29.08,1.93.09Zm2-.05-.06-1c.63-.05,1.28-.11,1.92-.2l.13,1C115.1,426.39,114.43,426.46,113.77,426.51Zm-6-.28c-.65-.1-1.31-.24-2-.39l.22-.95c.63.15,1.26.28,1.89.38Zm10-.28-.2-.95c.62-.14,1.25-.3,1.87-.48l.27.93C119,425.64,118.38,425.81,117.73,426Zm-13.84-.65c-.64-.2-1.28-.43-1.89-.68l.37-.9c.59.24,1.2.46,1.81.66Zm17.68-.5-.35-.9c.6-.23,1.2-.49,1.78-.76l.41.88C122.81,424.3,122.19,424.57,121.57,424.8Zm-21.4-1c-.6-.3-1.19-.62-1.76-1l.5-.83c.55.32,1.12.63,1.69.92Zm25-.7-.48-.85c.56-.32,1.11-.66,1.64-1l.54.8C126.34,422.41,125.77,422.77,125.19,423.1Zm-28.46-1.34c-.55-.38-1.08-.79-1.6-1.21l.61-.76c.5.41,1,.8,1.54,1.17Zm31.78-.89-.6-.77c.5-.39,1-.81,1.47-1.25l.66.72C129.55,420,129,420.46,128.51,420.87Zm-34.88-1.65c-.49-.46-1-.94-1.4-1.43l.72-.65c.43.47.88.93,1.34,1.38Zm37.83-1.05-.7-.67c.44-.47.87-1,1.27-1.45l.75.61C132.37,417.17,131.92,417.68,131.46,418.17Zm-40.52-1.91c-.41-.53-.81-1.07-1.18-1.63l.81-.54c.36.54.74,1.06,1.13,1.57Zm43.05-1.2-.8-.56c.36-.53.71-1.07,1-1.63l.84.5C134.73,413.94,134.37,414.51,134,415.06Zm-45.27-2.13c-.33-.58-.63-1.18-.92-1.78l.89-.42c.27.59.56,1.16.88,1.72ZM136,411.6l-.88-.43c.28-.57.55-1.16.79-1.76l.9.36C136.58,410.39,136.31,411,136,411.6Zm-49-2.3c-.23-.61-.44-1.25-.63-1.89l.93-.28c.18.62.39,1.23.61,1.83Zm50.49-1.42-.93-.29c.19-.61.36-1.24.51-1.86l.94.22C137.88,406.6,137.7,407.25,137.51,407.88Zm-51.62-2.42c-.13-.64-.25-1.31-.34-2l1-.13c.09.64.2,1.28.33,1.9ZM138.42,404l-1-.15c.09-.62.17-1.27.22-1.91l1,.08C138.6,402.66,138.52,403.33,138.42,404ZM85.35,401.5c0-.55,0-1.1,0-1.65v-.35h1v.34c0,.53,0,1.06,0,1.59Zm53.38-1.5h-1v-.14c0-.6,0-1.2-.06-1.79l1-.07c0,.61.07,1.23.07,1.86Zm-52.36-2.42-1-.09c.06-.66.15-1.32.25-2l1,.15Q86.46,396.62,86.37,397.58Zm51.13-1.44c-.09-.64-.21-1.27-.35-1.9l.95-.21c.14.65.27,1.31.36,2ZM87,393.77l-1-.22c.16-.65.34-1.3.54-1.93l.93.3C87.32,392.53,87.15,393.15,87,393.77Zm1.18-3.67-.9-.37c.25-.61.53-1.22.83-1.82l.87.43C88.69,388.92,88.43,389.51,88.18,390.1Zm1.73-3.45-.84-.5c.34-.57.71-1.13,1.1-1.68L91,385Q90.41,385.83,89.91,386.65Zm2.22-3.15-.75-.62c.43-.52.87-1,1.33-1.5l.7.67C93,382.51,92.54,383,92.13,383.5Zm2.67-2.79-.65-.72c.5-.45,1-.88,1.54-1.29l.59.77C95.78,379.86,95.28,380.28,94.8,380.71Zm3-2.36-.53-.81c.55-.37,1.13-.72,1.71-1l.47.85C98.94,377.66,98.39,378,97.85,378.35Zm3.37-1.88-.41-.88c.6-.28,1.22-.54,1.85-.77l.34.91C102.4,376,101.8,376.2,101.22,376.47Zm3.61-1.35-.27-.94c.64-.18,1.29-.35,1.94-.48l.2.95C106.08,374.78,105.45,374.94,104.83,375.12Z" transform="translate(-15.79 -297.83)"/><path class="cls-1" d="M108.68,374.32l-.12-1,1-.11.09,1Z" transform="translate(-15.79 -297.83)"/><path class="cls-1" d="M115.36,374.32l-1-.11.09-1,1,.11Z" transform="translate(-15.79 -297.83)"/><path class="cls-1" d="M132.74,384.57c-.41-.55-.84-1.1-1.3-1.62l.73-.64c.48.54.93,1.11,1.35,1.68ZM130,381.44c-.49-.48-1-.95-1.54-1.39l.62-.75c.55.46,1.09.95,1.6,1.45Zm-3.19-2.65c-.56-.4-1.14-.77-1.74-1.13l.5-.83c.61.36,1.22.75,1.81,1.17Zm-3.56-2.11c-.62-.3-1.26-.58-1.9-.83l.35-.9c.67.25,1.33.55,2,.86Zm-3.86-1.5c-.66-.2-1.34-.37-2-.51l.2-1c.7.15,1.4.33,2.09.54Z" transform="translate(-15.79 -297.83)"/><path class="cls-1" d="M134.4,387.11c-.16-.28-.32-.55-.49-.82l.83-.51c.17.28.34.56.5.85Z" transform="translate(-15.79 -297.83)"/><rect class="cls-1" x="95.75" y="104.46" width="0.97" height="17.02"/><rect class="cls-1" x="95.75" y="82.56" width="0.97" height="17.02"/><rect class="cls-1" x="98.67" y="101.53" width="17.02" height="0.97"/><rect class="cls-1" x="85.48" y="101.53" width="8.32" height="0.97"/><rect class="cls-1" x="76.77" y="101.53" width="3.83" height="0.97"/><path class="cls-1" d="M105.9,418.82c-.27-.16-6.7-4.11-7.48-16.51l1-.06c.75,11.89,6.94,15.7,7,15.74Z" transform="translate(-15.79 -297.83)"/><path class="cls-1" d="M99.39,397.44l-1-.06c.78-12.39,7.21-16.35,7.48-16.51l.5.84C106.33,381.74,100.13,385.6,99.39,397.44Z" transform="translate(-15.79 -297.83)"/><path class="cls-1" d="M118.14,418.82l-.5-.83a14.11,14.11,0,0,0,4.4-5.4l.87.44A14.46,14.46,0,0,1,118.14,418.82Z" transform="translate(-15.79 -297.83)"/><path class="cls-1" d="M124.66,408.39l-.94-.25a32.15,32.15,0,0,0,1-8.29c0-13.73-7-18.1-7.08-18.14l.5-.84c.31.19,7.55,4.7,7.55,19A33.15,33.15,0,0,1,124.66,408.39Z" transform="translate(-15.79 -297.83)"/><path class="cls-1" d="M126.06,410.29l-.49-.85a13.23,13.23,0,0,0,4.59-4l.83.5A13.76,13.76,0,0,1,126.06,410.29Z" transform="translate(-15.79 -297.83)"/><path class="cls-1" d="M112,413.52c-14.33,0-18.79-7.25-19-7.55l.84-.5c0,.07,4.41,7.08,18.14,7.08a31.34,31.34,0,0,0,9.2-1.26l.28.94A32.59,32.59,0,0,1,112,413.52Z" transform="translate(-15.79 -297.83)"/><path class="cls-1" d="M130.16,394.23c0-.07-4.46-7.09-18.14-7.09s-18.1,7-18.14,7.09l-.83-.51c.18-.3,4.7-7.55,19-7.55s18.79,7.25,19,7.55Z" transform="translate(-15.79 -297.83)"/><path class="cls-2" d="M114.46,373.62a2.44,2.44,0,1,1-2.44-2.44A2.44,2.44,0,0,1,114.46,373.62Z" transform="translate(-15.79 -297.83)"/><path class="cls-2" d="M138.25,389.09a2.44,2.44,0,1,1-2.44-2.43A2.44,2.44,0,0,1,138.25,389.09Z" transform="translate(-15.79 -297.83)"/><path class="cls-1" d="M111.92,430.91A31.07,31.07,0,1,1,143,399.85,31.1,31.1,0,0,1,111.92,430.91Zm0-61.16A30.1,30.1,0,1,0,142,399.85,30.13,30.13,0,0,0,111.92,369.75Z" transform="translate(-15.79 -297.83)"/><path class="cls-2" d="M101.27,399.85a2.44,2.44,0,1,1-2.44-2.44A2.43,2.43,0,0,1,101.27,399.85Z" transform="translate(-15.79 -297.83)"/><path class="cls-2" d="M114.46,399.85a2.44,2.44,0,1,1-2.44-2.44A2.44,2.44,0,0,1,114.46,399.85Z" transform="translate(-15.79 -297.83)"/><path class="cls-2" d="M125.93,410.6a2.44,2.44,0,1,1-2.43-2.44A2.44,2.44,0,0,1,125.93,410.6Z" transform="translate(-15.79 -297.83)"/><path class="cls-1" d="M156.81,365.12A5.17,5.17,0,1,1,162,360,5.16,5.16,0,0,1,156.81,365.12Zm0-9.36A4.2,4.2,0,1,0,161,360,4.2,4.2,0,0,0,156.81,355.76Z" transform="translate(-15.79 -297.83)"/><path class="cls-1" d="M171.72,364.72a6.07,6.07,0,1,1,6.07-6.07A6.08,6.08,0,0,1,171.72,364.72Zm0-11.16a5.09,5.09,0,1,0,5.1,5.09A5.1,5.1,0,0,0,171.72,353.56Z" transform="translate(-15.79 -297.83)"/><path class="cls-2" d="M158.32,368a25.65,25.65,0,0,1-8-.79l-.37-.1a6.1,6.1,0,0,0-4.85,6v5.18h10.71v-4A9.18,9.18,0,0,1,158.32,368Z" transform="translate(-15.79 -297.83)"/><path class="cls-2" d="M179.85,367.22l-.76.19a30.55,30.55,0,0,1-7.35.9,30.91,30.91,0,0,1-7-.83c-.24-.06-.48-.1-.71-.17l-.44-.11a7.25,7.25,0,0,0-5.78,7.1v6.18h27.89v-6.14A7.27,7.27,0,0,0,179.85,367.22Z" transform="translate(-15.79 -297.83)"/><path class="cls-2" d="M415.93,415.71a3.58,3.58,0,1,0,3.58-3.58A3.58,3.58,0,0,0,415.93,415.71Z" transform="translate(-15.79 -297.83)"/><path class="cls-2" d="M402.57,414.71a4.27,4.27,0,1,0,4.27-4.27A4.27,4.27,0,0,0,402.57,414.71Z" transform="translate(-15.79 -297.83)"/><path class="cls-1" d="M429,430.21h-9.17v-3.52a6.58,6.58,0,0,0-1.77-4.48l-.83-.89,1.21.07a19,19,0,0,0,6-.59l.39-.1.11,0a5.17,5.17,0,0,1,4.1,5Zm-8.19-1H428v-3.48a4.19,4.19,0,0,0-3.22-4.06l-.17,0a19.68,19.68,0,0,1-5.18.66,7.55,7.55,0,0,1,1.35,4.29Z" transform="translate(-15.79 -297.83)"/><path class="cls-1" d="M418,431.9h-22.3v-5.19a6.06,6.06,0,0,1,4.84-5.92l.11,0,.68.17a22.67,22.67,0,0,0,10.77.05l.24-.05.29-.07.45-.12.11,0a6,6,0,0,1,4.81,5.91Zm-21.33-1H417v-4.23a5.09,5.09,0,0,0-3.92-4.94l-.23.06-.33.08-.22.05a23.81,23.81,0,0,1-11.23-.05l-.47-.12a5.08,5.08,0,0,0-4,4.94Z" transform="translate(-15.79 -297.83)"/><path class="cls-4" d="M424.43,331.53a2.62,2.62,0,1,1-2.62-2.62A2.62,2.62,0,0,1,424.43,331.53Z" transform="translate(-15.79 -297.83)"/><path class="cls-1" d="M430.5,352.82H413.13a2.34,2.34,0,0,1-2.34-2.34V321a2.35,2.35,0,0,1,2.34-2.35H430.5a2.35,2.35,0,0,1,2.34,2.35v29.51A2.34,2.34,0,0,1,430.5,352.82ZM413.13,319.6a1.37,1.37,0,0,0-1.37,1.37v29.51a1.37,1.37,0,0,0,1.37,1.36H430.5a1.36,1.36,0,0,0,1.36-1.36V321a1.36,1.36,0,0,0-1.36-1.37Z" transform="translate(-15.79 -297.83)"/><path class="cls-2" d="M428.74,331.53a6.93,6.93,0,1,1-6.93-6.93A6.93,6.93,0,0,1,428.74,331.53Z" transform="translate(-15.79 -297.83)"/><path class="cls-1" d="M421.81,339a7.42,7.42,0,1,1,7.42-7.42A7.42,7.42,0,0,1,421.81,339Zm0-13.86a6.45,6.45,0,1,0,6.45,6.44A6.45,6.45,0,0,0,421.81,325.09Z" transform="translate(-15.79 -297.83)"/><polygon class="cls-1" points="405.48 33.71 404.51 33.71 404.51 27.25 399.16 24.33 399.16 21.28 400.13 21.28 400.13 23.75 405.48 26.67 405.48 33.71"/><path class="cls-2" d="M414.2,321.16a.67.67,0,1,1-.67-.67A.67.67,0,0,1,414.2,321.16Z" transform="translate(-15.79 -297.83)"/><path class="cls-2" d="M430.76,321.16a.66.66,0,0,1-.66.66.67.67,0,1,1,.66-.66Z" transform="translate(-15.79 -297.83)"/><path class="cls-2" d="M414.2,350.46a.67.67,0,1,1-.67-.67A.67.67,0,0,1,414.2,350.46Z" transform="translate(-15.79 -297.83)"/><circle class="cls-2" cx="414.31" cy="52.63" r="0.67"/><path class="cls-1" d="M421.81,333.05a1.52,1.52,0,1,1,1.52-1.52A1.53,1.53,0,0,1,421.81,333.05Zm0-2.06a.54.54,0,0,0-.54.54.55.55,0,1,0,1.09,0A.54.54,0,0,0,421.81,331Z" transform="translate(-15.79 -297.83)"/><rect class="cls-1" x="395.49" y="44.94" width="21.07" height="0.97"/><rect class="cls-1" x="395.49" y="47.2" width="21.07" height="0.97"/><rect class="cls-1" x="395.49" y="49.47" width="21.07" height="0.97"/><path class="cls-1" d="M406.13,400.76l-1.39-2a7.53,7.53,0,0,1-.95,0l-1.39,2-.33-.08c-.33-.09-.67-.2-1-.33l-.31-.13.06-2.45a5.8,5.8,0,0,1-.77-.56l-2.31.82-.21-.26a8.3,8.3,0,0,1-.63-.86l-.18-.29,1.49-1.94a5.89,5.89,0,0,1-.29-.9l-2.35-.7,0-.34c0-.17,0-.35,0-.53s0-.35,0-.53l0-.34,2.35-.69a6,6,0,0,1,.29-.91l-1.49-1.94.18-.29a8.6,8.6,0,0,1,.63-.86l.21-.26,2.31.82a7.22,7.22,0,0,1,.77-.56l-.06-2.45.31-.12a9.16,9.16,0,0,1,1-.33l.33-.09,1.39,2a7.53,7.53,0,0,1,.95,0l1.39-2,.33.09a9.16,9.16,0,0,1,1,.33l.31.12-.06,2.45a8.39,8.39,0,0,1,.77.56l2.31-.82.21.26a10.52,10.52,0,0,1,.63.86l.18.29-1.5,1.94a6.06,6.06,0,0,1,.3.91l2.35.69,0,.34c0,.18,0,.35,0,.53s0,.36,0,.53l0,.34-2.35.7a5.94,5.94,0,0,1-.3.9l1.5,1.94-.18.29a8.3,8.3,0,0,1-.63.86l-.21.26-2.31-.82a5.8,5.8,0,0,1-.77.56l.06,2.45-.31.13c-.34.13-.68.24-1,.33Zm-.91-3.05,1.32,1.93.25-.08-.06-2.34.25-.14a5.54,5.54,0,0,0,1.07-.78l.22-.2,2.2.79c.06-.07.11-.15.16-.22l-1.43-1.85.12-.27a5.09,5.09,0,0,0,.41-1.25l.06-.29,2.24-.67s0-.08,0-.13,0-.09,0-.13l-2.24-.66-.06-.29a5,5,0,0,0-.41-1.25l-.12-.27,1.43-1.86-.16-.21-2.21.78-.21-.2a5.11,5.11,0,0,0-1.07-.77l-.25-.15.06-2.34-.25-.08-1.33,1.94-.29,0a5.74,5.74,0,0,0-1.31,0l-.3,0L402,384.78l-.25.08.06,2.34-.25.15a5.11,5.11,0,0,0-1.07.77l-.22.2-2.2-.78-.16.21,1.43,1.86-.13.27a5.52,5.52,0,0,0-.4,1.25l-.06.29-2.24.66a.57.57,0,0,0,0,.13v.13l2.25.67.06.29a5.52,5.52,0,0,0,.4,1.25l.13.27-1.43,1.85c.05.07.1.15.16.22l2.2-.79.22.2a5.79,5.79,0,0,0,1.06.78l.26.14-.06,2.34.25.08,1.32-1.93.3,0a4.79,4.79,0,0,0,1.31,0Z" transform="translate(-15.79 -297.83)"/><path class="cls-2" d="M407.89,392.21a3.63,3.63,0,1,1-3.63-3.62A3.63,3.63,0,0,1,407.89,392.21Z" transform="translate(-15.79 -297.83)"/><path class="cls-1" d="M426,405.67l-1.77-2.59a10.44,10.44,0,0,1-1.37,0l-1.77,2.59-.33-.09a9.68,9.68,0,0,1-1.29-.42l-.31-.12.08-3.14a8.84,8.84,0,0,1-1.1-.8l-3,1-.22-.27a10.16,10.16,0,0,1-.79-1.09l-.18-.29,1.91-2.48a7.58,7.58,0,0,1-.42-1.3l-3-.89,0-.34c0-.22,0-.45,0-.67s0-.46,0-.68l0-.34,3-.89a7.58,7.58,0,0,1,.42-1.3L414,389.13l.18-.29a11.27,11.27,0,0,1,.79-1.09l.22-.27,3,1.06a8,8,0,0,1,1.1-.81l-.08-3.14.31-.12a11.38,11.38,0,0,1,1.29-.42l.33-.09,1.77,2.6a7.84,7.84,0,0,1,1.37,0L426,384l.34.09a11.92,11.92,0,0,1,1.28.42l.31.12-.08,3.14a8,8,0,0,1,1.1.81l3-1.06.22.27a11.27,11.27,0,0,1,.79,1.09l.18.29-1.91,2.48a7.58,7.58,0,0,1,.42,1.3l3,.89,0,.34c0,.22,0,.45,0,.68s0,.45,0,.67l0,.34-3,.89a7.58,7.58,0,0,1-.42,1.3l1.91,2.48-.18.29a10.16,10.16,0,0,1-.79,1.09l-.22.27-3-1a8.84,8.84,0,0,1-1.1.8L428,405l-.31.12a10,10,0,0,1-1.28.42Zm-1.3-3.62,1.72,2.5.52-.17-.08-3,.26-.15a6.9,6.9,0,0,0,1.39-1l.22-.2,2.86,1a5.15,5.15,0,0,0,.32-.45l-1.85-2.4.13-.27a7.31,7.31,0,0,0,.53-1.64l.06-.29,2.91-.86v-.55l-2.91-.86-.06-.29a7.31,7.31,0,0,0-.53-1.64l-.13-.27,1.85-2.4a5.15,5.15,0,0,0-.32-.45l-2.86,1-.22-.2a6.9,6.9,0,0,0-1.39-1l-.26-.15.08-3-.52-.17-1.72,2.51-.29,0a7.7,7.7,0,0,0-1.73,0l-.29,0-1.72-2.51-.52.17.08,3-.25.15a6.7,6.7,0,0,0-1.4,1l-.22.2-2.86-1a5.15,5.15,0,0,0-.32.45l1.85,2.4-.13.27a7.31,7.31,0,0,0-.53,1.64l-.06.29-2.91.86v.55l2.91.86.06.29a7.31,7.31,0,0,0,.53,1.64l.13.27-1.85,2.4a5.15,5.15,0,0,0,.32.45l2.86-1,.22.2a6.7,6.7,0,0,0,1.4,1l.25.15-.08,3,.52.17,1.72-2.5.29,0a7.15,7.15,0,0,0,1.73,0Z" transform="translate(-15.79 -297.83)"/><circle class="cls-2" cx="407.8" cy="96.99" r="4.67"/><path class="cls-2" d="M70.7,363.71a6.52,6.52,0,1,1-6.51-6.52A6.51,6.51,0,0,1,70.7,363.71Z" transform="translate(-15.79 -297.83)"/><path class="cls-1" d="M64.22,375.39a11.69,11.69,0,0,1-10.38-6.29l.64-.34a11,11,0,0,0,20.74-5.1H76A11.74,11.74,0,0,1,64.22,375.39Z" transform="translate(-15.79 -297.83)"/><polygon class="cls-1" points="56.35 69.79 55.84 69.28 59.79 65.32 63.75 69.28 63.23 69.79 59.79 66.35 56.35 69.79"/><path class="cls-1" d="M53.23,363.66H52.5a11.72,11.72,0,0,1,22.11-5.43l-.64.34a11,11,0,0,0-20.74,5.09Z" transform="translate(-15.79 -297.83)"/><polygon class="cls-1" points="37.08 66.35 33.13 62.4 33.64 61.88 37.08 65.32 40.52 61.88 41.04 62.4 37.08 66.35"/><rect class="cls-2" x="203.8" y="92.39" width="1.92" height="1.92"/><rect class="cls-2" x="216.55" y="91.3" width="4.09" height="4.09"/><path class="cls-1" d="M229.41,393.87H225a.47.47,0,0,1-.48-.48V389a.48.48,0,0,1,.48-.49h4.43a.49.49,0,0,1,.49.49v4.43A.48.48,0,0,1,229.41,393.87Zm-3.94-1h3.46v-3.46h-3.46Z" transform="translate(-15.79 -297.83)"/><rect class="cls-2" x="202.93" y="69.92" width="3.65" height="3.65"/><rect class="cls-2" x="217.64" y="70.79" width="1.92" height="1.92"/><path class="cls-1" d="M229.41,372.28H225a.48.48,0,0,1-.48-.49v-4.43a.48.48,0,0,1,.48-.49h4.43a.49.49,0,0,1,.49.49v4.43A.49.49,0,0,1,229.41,372.28Zm-3.94-1h3.46v-3.45h-3.46Z" transform="translate(-15.79 -297.83)"/><rect class="cls-2" x="203.8" y="49.19" width="1.92" height="1.92"/><rect class="cls-2" x="216.38" y="47.94" width="4.43" height="4.43"/><path class="cls-1" d="M229.41,350.68H225a.48.48,0,0,1-.48-.49v-4.43a.47.47,0,0,1,.48-.48h4.43a.48.48,0,0,1,.49.48v4.43A.49.49,0,0,1,229.41,350.68Zm-3.94-1h3.46v-3.46h-3.46Z" transform="translate(-15.79 -297.83)"/><path class="cls-1" d="M258.44,323.64a.48.48,0,0,1-.49-.48V308.77a.49.49,0,0,1,.49-.49.48.48,0,0,1,.48.49v14.39A.47.47,0,0,1,258.44,323.64Z" transform="translate(-15.79 -297.83)"/><path class="cls-1" d="M227.2,319.71c-17.79,0-31.73-4.81-31.73-10.94s13.94-10.94,31.73-10.94,31.72,4.8,31.72,10.94S245,319.71,227.2,319.71Zm0-20.91c-16.67,0-30.75,4.56-30.75,10s14.08,10,30.75,10,30.75-4.57,30.75-10S243.87,298.8,227.2,298.8Z" transform="translate(-15.79 -297.83)"/><path class="cls-2" d="M246.87,308.77c0,3.07-8.81,5.56-19.67,5.56s-19.67-2.49-19.67-5.56,8.8-5.56,19.67-5.56S246.87,305.7,246.87,308.77Z" transform="translate(-15.79 -297.83)"/><rect class="cls-2" x="202.75" y="26.55" width="4.01" height="4.01"/><rect class="cls-2" x="217.64" y="27.6" width="1.92" height="1.92"/><path class="cls-1" d="M229.41,329.08H225a.47.47,0,0,1-.48-.48v-4.43a.48.48,0,0,1,.48-.49h4.43a.49.49,0,0,1,.49.49v4.43A.48.48,0,0,1,229.41,329.08Zm-3.94-1h3.46v-3.46h-3.46Z" transform="translate(-15.79 -297.83)"/><path class="cls-1" d="M196,323.64a.48.48,0,0,1-.49-.48V308.77a.49.49,0,1,1,1,0v14.39A.48.48,0,0,1,196,323.64Z" transform="translate(-15.79 -297.83)"/><path class="cls-1" d="M258.44,345.49A.49.49,0,0,1,258,345V330.62a.49.49,0,0,1,.49-.49.48.48,0,0,1,.48.49V345A.48.48,0,0,1,258.44,345.49Z" transform="translate(-15.79 -297.83)"/><path class="cls-1" d="M196,345.49a.49.49,0,0,1-.49-.49V330.62a.49.49,0,0,1,1,0V345A.49.49,0,0,1,196,345.49Z" transform="translate(-15.79 -297.83)"/><path class="cls-1" d="M258.44,367.33a.48.48,0,0,1-.49-.48V352.46a.49.49,0,0,1,.49-.49.48.48,0,0,1,.48.49v14.39A.47.47,0,0,1,258.44,367.33Z" transform="translate(-15.79 -297.83)"/><path class="cls-1" d="M196,367.33a.48.48,0,0,1-.49-.48V352.46a.49.49,0,1,1,1,0v14.39A.48.48,0,0,1,196,367.33Z" transform="translate(-15.79 -297.83)"/><path class="cls-1" d="M258.44,389.18a.49.49,0,0,1-.49-.48V374.31a.49.49,0,0,1,.49-.49.48.48,0,0,1,.48.49V388.7A.48.48,0,0,1,258.44,389.18Z" transform="translate(-15.79 -297.83)"/><path class="cls-1" d="M196,389.18a.49.49,0,0,1-.49-.48V374.31a.49.49,0,0,1,1,0V388.7A.49.49,0,0,1,196,389.18Z" transform="translate(-15.79 -297.83)"/><path class="cls-1" d="M227.2,334.1c-17.79,0-31.73-4.81-31.73-10.94a.49.49,0,0,1,1,0c0,5.4,14.08,10,30.75,10s30.75-4.57,30.75-10a.49.49,0,0,1,.49-.49.48.48,0,0,1,.48.49C258.92,329.29,245,334.1,227.2,334.1Z" transform="translate(-15.79 -297.83)"/><path class="cls-1" d="M227.2,355.91c-17.79,0-31.73-4.81-31.73-10.94a.49.49,0,0,1,1,0c0,5.4,14.08,10,30.75,10S258,350.37,258,345a.49.49,0,0,1,.49-.49.48.48,0,0,1,.48.49C258.92,351.1,245,355.91,227.2,355.91Z" transform="translate(-15.79 -297.83)"/><path class="cls-1" d="M227.2,377.72c-17.79,0-31.73-4.81-31.73-11a.49.49,0,0,1,1,0c0,5.41,14.08,10,30.75,10s30.75-4.56,30.75-10a.48.48,0,0,1,.49-.48.47.47,0,0,1,.48.48C258.92,372.91,245,377.72,227.2,377.72Z" transform="translate(-15.79 -297.83)"/><path class="cls-1" d="M227.2,399.52c-17.79,0-31.73-4.8-31.73-10.94a.49.49,0,0,1,1,0c0,5.41,14.08,10,30.75,10S258,394,258,388.58a.48.48,0,0,1,.49-.48.47.47,0,0,1,.48.48C258.92,394.72,245,399.52,227.2,399.52Z" transform="translate(-15.79 -297.83)"/><path class="cls-1" d="M227.2,341.31c-17.79,0-31.73-4.81-31.73-10.94a5.43,5.43,0,0,1,2.07-4,.5.5,0,0,1,.69,0,.49.49,0,0,1,0,.69,4.5,4.5,0,0,0-1.74,3.25c0,5.4,14.08,10,30.75,10s30.75-4.57,30.75-10a4.54,4.54,0,0,0-1.74-3.25.49.49,0,0,1,0-.69.5.5,0,0,1,.69,0,5.41,5.41,0,0,1,2.06,4C258.92,336.5,245,341.31,227.2,341.31Z" transform="translate(-15.79 -297.83)"/><path class="cls-1" d="M227.2,363.41c-17.79,0-31.73-4.81-31.73-11a5.43,5.43,0,0,1,2.07-4,.49.49,0,1,1,.65.72,4.48,4.48,0,0,0-1.74,3.24c0,5.41,14.08,10,30.75,10s30.75-4.56,30.75-10a4.52,4.52,0,0,0-1.74-3.24.49.49,0,1,1,.65-.72,5.41,5.41,0,0,1,2.06,4C258.92,358.6,245,363.41,227.2,363.41Z" transform="translate(-15.79 -297.83)"/><path class="cls-1" d="M227.2,385.5c-17.79,0-31.73-4.8-31.73-10.94a5.41,5.41,0,0,1,2.07-4,.49.49,0,0,1,.69,0,.48.48,0,0,1,0,.68,4.5,4.5,0,0,0-1.74,3.25c0,5.4,14.08,10,30.75,10S258,380,258,374.56a4.5,4.5,0,0,0-1.74-3.24.49.49,0,1,1,.65-.72,5.39,5.39,0,0,1,2.06,4C258.92,380.7,245,385.5,227.2,385.5Z" transform="translate(-15.79 -297.83)"/><rect class="cls-2" x="298.36" y="372.86" width="6.95" height="20.82" transform="translate(-198.4 27.86) rotate(-45)"/><path class="cls-1" d="M284.63,377.11a11,11,0,1,1,7.81-3.23A11,11,0,0,1,284.63,377.11Zm0-21.1a10.06,10.06,0,1,0,7.12,2.94A10,10,0,0,0,284.63,356Z" transform="translate(-15.79 -297.83)"/><path class="cls-1" d="M293.48,377.6l-3.07-3.07,2.68-2.68,3.07,3.07Zm-1.7-3.07,1.7,1.69,1.3-1.3-1.69-1.7Z" transform="translate(-15.79 -297.83)"/><path class="cls-1" d="M283.59,373.45a6.86,6.86,0,0,1-2-.59l.4-.88a6.42,6.42,0,0,0,1.77.51Zm2.12,0-.14-1a6,6,0,0,0,1.76-.52l.41.89A7.91,7.91,0,0,1,285.71,373.45Zm-5.94-1.72a7.31,7.31,0,0,1-1.39-1.6l.81-.53A7,7,0,0,0,280.4,371Zm9.75,0-.64-.74a6.43,6.43,0,0,0,1.21-1.39l.82.52A7.63,7.63,0,0,1,289.52,371.7Zm-12-3.49a7.79,7.79,0,0,1-.31-2.1h1a6.22,6.22,0,0,0,.27,1.82Zm14.31,0-.94-.28a6.56,6.56,0,0,0,.26-1.82l1-.08v.08A7.83,7.83,0,0,1,291.79,368.17Zm-13.39-3.89-.94-.26a7.53,7.53,0,0,1,.87-1.94l.82.52A6.31,6.31,0,0,0,278.4,364.28Zm12.43-.11a6.3,6.3,0,0,0-.78-1.66l.81-.54a7.65,7.65,0,0,1,.9,1.92Zm-10.48-3-.64-.73a7.22,7.22,0,0,1,1.77-1.16l.41.88A6.31,6.31,0,0,0,280.35,361.2Zm8.47-.07a6.44,6.44,0,0,0-1.55-1l.39-.89a7.42,7.42,0,0,1,1.79,1.13Zm-5.17-1.47-.15-1a6.92,6.92,0,0,1,1.11-.09h0a8.09,8.09,0,0,1,1,.07l-.13,1a8.49,8.49,0,0,0-.88-.05A6.2,6.2,0,0,0,283.65,359.66Z" transform="translate(-15.79 -297.83)"/><path class="cls-3" d="M280.65,366a3.86,3.86,0,1,0,3.86-3.86A3.86,3.86,0,0,0,280.65,366Z" transform="translate(-15.79 -297.83)"/><path class="cls-1" d="M277.08,336.28l-1.77-2.6a7.84,7.84,0,0,1-1.37,0l-1.78,2.6-.33-.09a11.23,11.23,0,0,1-1.28-.42l-.32-.12.09-3.14a8.75,8.75,0,0,1-1.11-.81l-2.95,1.06-.22-.27a10.55,10.55,0,0,1-.79-1.09l-.19-.29,1.92-2.48a9,9,0,0,1-.43-1.3l-3-.89,0-.34c0-.23,0-.45,0-.68s0-.45,0-.67l0-.34,3-.89a8.61,8.61,0,0,1,.43-1.3l-1.92-2.49.19-.28a10.72,10.72,0,0,1,.79-1.1l.22-.26,3,1.05a8.84,8.84,0,0,1,1.1-.8l-.09-3.14.32-.12a11.23,11.23,0,0,1,1.28-.42l.33-.09,1.78,2.6a7.84,7.84,0,0,1,1.37,0l1.77-2.6.33.09a10.07,10.07,0,0,1,1.28.42l.32.12-.09,3.14a9,9,0,0,1,1.11.8l3-1.05.22.26a12.49,12.49,0,0,1,.79,1.1l.18.28-1.91,2.49a8.56,8.56,0,0,1,.42,1.3l3,.89,0,.34c0,.22,0,.45,0,.67s0,.45,0,.68l0,.34-3,.89a8.56,8.56,0,0,1-.42,1.3l1.91,2.48-.18.29a10.55,10.55,0,0,1-.79,1.09l-.22.27-3-1.06a8.09,8.09,0,0,1-1.11.81l.09,3.14-.32.12a10.62,10.62,0,0,1-1.28.42Zm-1.3-3.63,1.72,2.51L278,335l-.08-3,.25-.14a6.7,6.7,0,0,0,1.4-1l.22-.2,2.86,1c.11-.14.21-.29.32-.45l-1.85-2.4.13-.27a7.31,7.31,0,0,0,.53-1.64l.06-.29,2.91-.86v-.55l-2.91-.86-.06-.29a7.15,7.15,0,0,0-.53-1.64l-.13-.27,1.85-2.4c-.11-.16-.21-.31-.32-.45l-2.86,1-.22-.2a6.7,6.7,0,0,0-1.4-1l-.25-.14.08-3-.52-.17-1.72,2.51-.29,0a7.15,7.15,0,0,0-1.73,0l-.29,0-1.72-2.51-.52.17.08,3-.26.14a7.26,7.26,0,0,0-1.4,1l-.21.2-2.86-1a5.15,5.15,0,0,0-.32.45l1.84,2.4-.12.27a7.31,7.31,0,0,0-.53,1.64l-.06.29-2.91.86v.55l2.91.86.06.29a7.47,7.47,0,0,0,.53,1.64l.12.27-1.84,2.4a5.15,5.15,0,0,0,.32.45l2.86-1,.21.2a7.26,7.26,0,0,0,1.4,1l.26.14-.08,3,.52.17,1.72-2.51.29,0a8.34,8.34,0,0,0,1.73,0Z" transform="translate(-15.79 -297.83)"/><path class="cls-3" d="M269.07,325.58a5.55,5.55,0,1,0,5.55-5.55A5.56,5.56,0,0,0,269.07,325.58Z" transform="translate(-15.79 -297.83)"/><path class="cls-2" d="M333.46,363.59a2.36,2.36,0,1,1-2.36-2.36A2.36,2.36,0,0,1,333.46,363.59Z" transform="translate(-15.79 -297.83)"/><path class="cls-1" d="M304.06,365.4a1.81,1.81,0,1,1,1.81-1.81A1.82,1.82,0,0,1,304.06,365.4Zm0-2.65a.84.84,0,0,0-.83.84.83.83,0,0,0,.83.83.84.84,0,0,0,.84-.83A.85.85,0,0,0,304.06,362.75Z" transform="translate(-15.79 -297.83)"/><path class="cls-1" d="M358.13,365.4a1.81,1.81,0,1,1,1.81-1.81A1.82,1.82,0,0,1,358.13,365.4Zm0-2.65a.84.84,0,0,0-.83.84.83.83,0,0,0,.83.83.84.84,0,0,0,.84-.83A.85.85,0,0,0,358.13,362.75Z" transform="translate(-15.79 -297.83)"/><rect class="cls-1" x="289.6" y="65.28" width="21.84" height="0.97"/><rect class="cls-1" x="319.18" y="65.28" width="21.84" height="0.97"/><path class="cls-2" d="M303.76,336.16l-2.26-1.88a1.29,1.29,0,0,0-.82-.3H297.1a1.29,1.29,0,0,0-1.29,1.29v13.06a1.28,1.28,0,0,0,1.29,1.28h14a1.28,1.28,0,0,0,1.28-1.28V337.75a1.28,1.28,0,0,0-1.28-1.29h-6.56A1.24,1.24,0,0,1,303.76,336.16Z" transform="translate(-15.79 -297.83)"/><rect class="cls-1" x="280.02" y="48.94" width="16.61" height="0.97"/><path class="cls-2" d="M357.83,336.16l-2.25-1.88a1.34,1.34,0,0,0-.83-.3h-3.58a1.29,1.29,0,0,0-1.29,1.29v13.06a1.28,1.28,0,0,0,1.29,1.28h14a1.28,1.28,0,0,0,1.28-1.28V337.75a1.28,1.28,0,0,0-1.28-1.29h-6.56A1.24,1.24,0,0,1,357.83,336.16Z" transform="translate(-15.79 -297.83)"/><rect class="cls-1" x="334.09" y="48.94" width="16.61" height="0.97"/><path class="cls-1" d="M345.72,358.5H316.58a3.16,3.16,0,0,1-3.15-3.15V328.24a3.16,3.16,0,0,1,3.15-3.15H324a3.15,3.15,0,0,1,2,.74l4.67,3.91a2.22,2.22,0,0,0,1.4.5h13.6a3.16,3.16,0,0,1,3.15,3.16v22A3.15,3.15,0,0,1,345.72,358.5Zm-29.14-32.44a2.19,2.19,0,0,0-2.18,2.18v27.11a2.19,2.19,0,0,0,2.18,2.18h29.14a2.19,2.19,0,0,0,2.18-2.18v-22a2.18,2.18,0,0,0-2.18-2.18h-13.6a3.16,3.16,0,0,1-2-.74l-4.68-3.91a2.17,2.17,0,0,0-1.4-.51Z" transform="translate(-15.79 -297.83)"/><path class="cls-1" d="M331.1,350.53a8.36,8.36,0,0,1-7.43-4.49l.86-.45a7.41,7.41,0,0,0,14-3.43h1A8.38,8.38,0,0,1,331.1,350.53Z" transform="translate(-15.79 -297.83)"/><polygon class="cls-1" points="325.43 47.24 323.2 45.02 320.98 47.24 320.29 46.56 323.2 43.64 326.12 46.56 325.43 47.24"/><path class="cls-1" d="M323.69,342.16h-1a8.38,8.38,0,0,1,15.8-3.89l-.86.45a7.41,7.41,0,0,0-14,3.44Z" transform="translate(-15.79 -297.83)"/><polygon class="cls-1" points="307.42 45.02 304.5 42.1 305.19 41.42 307.42 43.64 309.64 41.42 310.33 42.1 307.42 45.02"/><rect class="cls-1" x="298.13" y="54.82" width="34.47" height="0.97"/><path class="cls-2" d="M422,366H421a5.09,5.09,0,0,0-4.56-4.86,8.11,8.11,0,0,0-16,2.05,8,8,0,0,0,.52,2.86,4.38,4.38,0,0,0-3.72,4.32h0a4.38,4.38,0,0,0,4.37,4.37H422a4.39,4.39,0,0,0,4.37-4.37h0A4.39,4.39,0,0,0,422,366Z" transform="translate(-15.79 -297.83)"/><path class="cls-1" d="M414.68,372h-8.6a1.27,1.27,0,0,1-1.27-1.27v-8a1.27,1.27,0,0,1,1.27-1.27h2.2a1.28,1.28,0,0,1,.81.29l1.38,1.16a.34.34,0,0,0,.19.07h4a1.27,1.27,0,0,1,1.27,1.27v6.48A1.27,1.27,0,0,1,414.68,372Zm-8.6-9.57a.31.31,0,0,0-.3.3v8a.3.3,0,0,0,.3.3h8.6a.3.3,0,0,0,.3-.3v-6.48a.31.31,0,0,0-.3-.3h-4a1.23,1.23,0,0,1-.81-.3l-1.38-1.15a.37.37,0,0,0-.19-.07Z" transform="translate(-15.79 -297.83)"/><rect class="cls-1" x="389.51" y="71.19" width="10.17" height="0.97"/><rect class="cls-1" x="95.81" y="67.59" width="0.97" height="0.97"/><rect class="cls-1" x="95.81" y="64.32" width="0.97" height="0.97"/><rect class="cls-1" x="117.22" y="62.7" width="0.97" height="0.97"/><path class="cls-1" d="M130.92,361.5h-2.09v-1h2.09Zm-4.19,0h-2.09v-1h2.09Zm-4.18,0h-2.09v-1h2.09Zm-4.19,0h-2.09v-1h2.09Z" transform="translate(-15.79 -297.83)"/><rect class="cls-1" x="97.42" y="62.7" width="0.97" height="0.97"/><rect class="cls-1" x="94.19" y="62.7" width="0.97" height="0.97"/><path class="cls-1" d="M107.89,361.5H105.8v-1h2.09Zm-4.19,0h-2.09v-1h2.09Zm-4.18,0H97.43v-1h2.09Zm-4.19,0H93.24v-1h2.09Z" transform="translate(-15.79 -297.83)"/><rect class="cls-1" x="74.39" y="62.7" width="0.97" height="0.97"/><path class="cls-1" d="M113.69,362.63h-3.22v-3.22h3.22Zm-2.25-1h1.28v-1.28h-1.28Z" transform="translate(-15.79 -297.83)"/><path class="cls-1" d="M136.72,362.63H133.5v-3.22h3.22Zm-2.25-1h1.28v-1.28h-1.28Z" transform="translate(-15.79 -297.83)"/><path class="cls-1" d="M90.66,362.63H87.44v-3.22h3.22Zm-2.25-1h1.28v-1.28H88.41Z" transform="translate(-15.79 -297.83)"/><path class="cls-1" d="M122.06,357.75h-20V327.16h20Zm-19-1h18.07V328.13H103Z" transform="translate(-15.79 -297.83)"/><path class="cls-1" d="M120.28,355.53H103.84v-3.88h16.44Zm-15.47-1H119.3v-1.94H104.81Z" transform="translate(-15.79 -297.83)"/><path class="cls-1" d="M120.28,350.62H103.84v-3.88h16.44Zm-15.47-1H119.3v-1.94H104.81Z" transform="translate(-15.79 -297.83)"/><path class="cls-2" d="M109.84,334.84a2.22,2.22,0,1,1,2.22,2.22A2.21,2.21,0,0,1,109.84,334.84Z" transform="translate(-15.79 -297.83)"/><path class="cls-1" d="M117.58,336.89a2,2,0,1,1,2-2.05A2.05,2.05,0,0,1,117.58,336.89Zm0-3.13a1.08,1.08,0,1,0,1.08,1.08A1.08,1.08,0,0,0,117.58,333.76Z" transform="translate(-15.79 -297.83)"/><path class="cls-1" d="M106.54,336.89a2,2,0,1,1,2-2.05A2.05,2.05,0,0,1,106.54,336.89Zm0-3.13a1.08,1.08,0,1,0,1.07,1.08A1.08,1.08,0,0,0,106.54,333.76Z" transform="translate(-15.79 -297.83)"/><path class="cls-1" d="M122.06,344h-20v-3h20Zm-19-1h18.07v-1.08H103Z" transform="translate(-15.79 -297.83)"/><path class="cls-1" d="M144.31,353.77H129.42V331.14h14.89Zm-13.92-1h13V332.11h-13Z" transform="translate(-15.79 -297.83)"/><rect class="cls-2" x="131.21" y="349.53" width="11.31" height="2.13" transform="translate(257.94 403.37) rotate(180)"/><path class="cls-1" d="M143,348.56H130.72v-3.11H143Zm-11.31-1H142v-1.16H131.7Z" transform="translate(-15.79 -297.83)"/><path class="cls-1" d="M136.87,339a2.11,2.11,0,1,1,2.1-2.1A2.1,2.1,0,0,1,136.87,339Zm0-3.24a1.14,1.14,0,1,0,1.13,1.14A1.14,1.14,0,0,0,136.87,335.75Z" transform="translate(-15.79 -297.83)"/><path class="cls-1" d="M140.9,338.52a1.63,1.63,0,1,1,1.63-1.63A1.63,1.63,0,0,1,140.9,338.52Zm0-2.29a.66.66,0,1,0,.66.66A.66.66,0,0,0,140.9,336.23Z" transform="translate(-15.79 -297.83)"/><path class="cls-1" d="M132.83,338.52a1.63,1.63,0,1,1,1.63-1.63A1.63,1.63,0,0,1,132.83,338.52Zm0-2.29a.66.66,0,1,0,.66.66A.66.66,0,0,0,132.83,336.23Z" transform="translate(-15.79 -297.83)"/><rect class="cls-1" x="114.12" y="44.14" width="13.92" height="0.97"/><path class="cls-1" d="M94.62,353.77H79.72V331.14h14.9Zm-13.92-1h13V332.11h-13Z" transform="translate(-15.79 -297.83)"/><rect class="cls-2" x="81.61" y="349.53" width="11.31" height="2.13" transform="translate(158.74 403.37) rotate(180)"/><path class="cls-1" d="M93.3,348.56H81v-3.11H93.3Zm-11.31-1H92.33v-1.16H82Z" transform="translate(-15.79 -297.83)"/><path class="cls-1" d="M87.26,339a2.11,2.11,0,1,1,2.11-2.1A2.1,2.1,0,0,1,87.26,339Zm0-3.24a1.14,1.14,0,1,0,1.13,1.14A1.14,1.14,0,0,0,87.26,335.75Z" transform="translate(-15.79 -297.83)"/><path class="cls-1" d="M91.3,338.52a1.63,1.63,0,1,1,1.63-1.63A1.63,1.63,0,0,1,91.3,338.52Zm0-2.29a.66.66,0,1,0,.66.66A.66.66,0,0,0,91.3,336.23Z" transform="translate(-15.79 -297.83)"/><path class="cls-1" d="M83.22,338.52a1.63,1.63,0,1,1,1.64-1.63A1.64,1.64,0,0,1,83.22,338.52Zm0-2.29a.66.66,0,0,0,0,1.32.66.66,0,0,0,0-1.32Z" transform="translate(-15.79 -297.83)"/><rect class="cls-1" x="64.42" y="44.14" width="13.92" height="0.97"/><path class="cls-1" d="M396.39,364.39h-14.9V341.76h14.9Zm-13.93-1h13V342.73h-13Z" transform="translate(-15.79 -297.83)"/><rect class="cls-2" x="383.28" y="360.15" width="11.31" height="2.13" transform="translate(762.09 424.6) rotate(180)"/><path class="cls-1" d="M395.08,359.17H382.8v-3.1h12.28Zm-11.31-1h10.34V357H383.77Z" transform="translate(-15.79 -297.83)"/><path class="cls-1" d="M388.94,349.61a2.11,2.11,0,1,1,2.1-2.11A2.12,2.12,0,0,1,388.94,349.61Zm0-3.24a1.14,1.14,0,1,0,1.13,1.13A1.13,1.13,0,0,0,388.94,346.37Z" transform="translate(-15.79 -297.83)"/><path class="cls-1" d="M393,349.13a1.63,1.63,0,1,1,1.64-1.63A1.64,1.64,0,0,1,393,349.13Zm0-2.29a.66.66,0,1,0,.66.66A.66.66,0,0,0,393,346.84Z" transform="translate(-15.79 -297.83)"/><path class="cls-1" d="M384.9,349.13a1.63,1.63,0,1,1,1.63-1.63A1.63,1.63,0,0,1,384.9,349.13Zm0-2.29a.66.66,0,1,0,.66.66A.67.67,0,0,0,384.9,346.84Z" transform="translate(-15.79 -297.83)"/><rect class="cls-1" x="366.19" y="54.76" width="13.92" height="0.97"/><path class="cls-1" d="M164.85,351l-.26-.18c-.15-.09-14.24-9.64-14.24-25.61V316.1l14.5-5.84,14.51,5.84V325c0,16.18-14.09,25.73-14.24,25.82Zm-13.53-34.27v8.48c0,14.24,11.6,23.22,13.53,24.61,1.93-1.39,13.54-10.4,13.54-24.82v-8.27l-13.54-5.45Z" transform="translate(-15.79 -297.83)"/><path class="cls-1" d="M164.85,344.16l-.26-.18c-.1-.06-9.89-6.7-9.89-17.79v-6.4l10.15-4.09L175,319.79V326c0,11.24-9.79,17.88-9.89,17.94Zm-9.18-23.71v5.74c0,9.55,7.64,15.65,9.18,16.79,1.55-1.14,9.19-7.26,9.19-16.94v-5.59l-9.19-3.71Z" transform="translate(-15.79 -297.83)"/><path class="cls-1" d="M170.62,336.39H159.09V326.21h11.53Zm-10.56-1h9.59v-8.24h-9.59Z" transform="translate(-15.79 -297.83)"/><path class="cls-1" d="M168.47,326.69h-1V323.9a2.64,2.64,0,1,0-5.27,0v2.79h-1V323.9a3.62,3.62,0,0,1,7.23,0Z" transform="translate(-15.79 -297.83)"/><path class="cls-1" d="M164.85,333.57a.93.93,0,0,1-.92-.93v-2.11a1.77,1.77,0,1,1,1.85,0v2.11A.93.93,0,0,1,164.85,333.57Zm0-5.32a.78.78,0,0,0-.78.79.77.77,0,0,0,.52.73l.26.1.27-.1a.78.78,0,0,0-.27-1.52Z" transform="translate(-15.79 -297.83)"/><rect class="cls-1" x="160.33" y="334.09" width="1.5" height="0.97" transform="translate(-212.88 -61.22) rotate(-48.99)"/><rect class="cls-1" x="162.85" y="334.09" width="1.5" height="0.97" transform="translate(-212.03 -59.28) rotate(-49)"/><rect class="cls-1" x="165.37" y="334.09" width="1.5" height="0.97" transform="translate(-211.16 -57.4) rotate(-49)"/><rect class="cls-1" x="167.88" y="334.09" width="1.5" height="0.97" transform="translate(-210.29 -55.5) rotate(-49)"/><polygon class="cls-2" points="354.51 132.44 326.39 132.44 330.9 120.2 350 120.2 354.51 132.44"/><path class="cls-1" d="M387.64,418.51H324.83a4.78,4.78,0,0,1-4.78-4.77V373.83a4.78,4.78,0,0,1,4.78-4.78h62.81a4.78,4.78,0,0,1,4.78,4.78v39.91A4.78,4.78,0,0,1,387.64,418.51ZM324.83,370a3.82,3.82,0,0,0-3.81,3.81v39.91a3.81,3.81,0,0,0,3.81,3.8h62.81a3.81,3.81,0,0,0,3.81-3.8V373.83a3.82,3.82,0,0,0-3.81-3.81Z" transform="translate(-15.79 -297.83)"/><path class="cls-1" d="M388.72,414.89h-65V372.68h65Zm-64-1h63V373.65h-63Z" transform="translate(-15.79 -297.83)"/><path class="cls-1" d="M385.66,412.26H326.81v-37h58.85Zm-57.88-1h56.91v-35H327.78Z" transform="translate(-15.79 -297.83)"/><path class="cls-2" d="M355.68,385.09l-3.48-2.91a2,2,0,0,0-1.27-.47H345.4a2,2,0,0,0-2,2v20.17a2,2,0,0,0,2,2h21.68a2,2,0,0,0,2-2V387.53a2,2,0,0,0-2-2H357A2,2,0,0,1,355.68,385.09Z" transform="translate(-15.79 -297.83)"/><rect class="cls-1" x="327.62" y="103.9" width="25.65" height="0.97"/><rect class="cls-1" x="322.31" y="131.95" width="36.8" height="0.97"/><rect class="cls-3" x="314.86" y="81.25" width="10.91" height="29.64"/><rect class="cls-3" x="355.08" y="80.74" width="10.91" height="29.64"/><rect class="cls-1" x="30.72" y="116.03" width="0.97" height="0.49"/><path class="cls-1" d="M47.48,421.94h-1v-.84h1Zm0-2.53h-1v-.85h1Zm0-2.54h-1V416h1Z" transform="translate(-15.79 -297.83)"/><rect class="cls-1" x="30.72" y="125.8" width="0.97" height="0.49"/><rect class="cls-1" x="4.21" y="127.87" width="0.49" height="0.97"/><path class="cls-1" d="M42.6,426.67h-.92v-1h.92Zm-2.76,0h-.92v-1h.92Zm-2.77,0h-.92v-1h.92Zm-2.76,0h-.92v-1h.92Zm-2.77,0h-.92v-1h.92Zm-2.76,0h-.92v-1h.92Zm-2.76,0h-.93v-1H26Zm-2.77,0h-.92v-1h.92Z" transform="translate(-15.79 -297.83)"/><rect class="cls-1" x="28.66" y="127.87" width="0.49" height="0.97"/><path class="cls-2" d="M49.06,426.18A2.07,2.07,0,1,1,47,424.12,2.06,2.06,0,0,1,49.06,426.18Z" transform="translate(-15.79 -297.83)"/><rect class="cls-1" x="47.9" y="127.87" width="0.49" height="0.97"/><path class="cls-1" d="M75.17,426.67h-.91v-1h.91Zm-2.75,0h-.91v-1h.91Zm-2.75,0h-.91v-1h.91Zm-2.75,0H66v-1h.92Z" transform="translate(-15.79 -297.83)"/><rect class="cls-1" x="61.22" y="127.87" width="0.49" height="0.97"/><rect class="cls-1" x="33.28" y="127.87" width="0.49" height="0.97"/><rect class="cls-1" x="35.88" y="127.87" width="1.06" height="0.97"/><rect class="cls-1" x="39.05" y="127.87" width="0.49" height="0.97"/><polygon class="cls-2" points="21.63 89.19 21.63 92.5 18.45 92.53 21.63 89.19"/><rect class="cls-1" x="24.18" y="90.37" width="7.49" height="0.97"/><rect class="cls-1" x="24.18" y="92.59" width="7.03" height="0.97"/><rect class="cls-1" x="20.71" y="94.81" width="10.55" height="0.97"/><rect class="cls-1" x="20.71" y="97.03" width="10.94" height="0.97"/><rect class="cls-1" x="20.71" y="99.25" width="11.78" height="0.97"/><rect class="cls-1" x="20.71" y="101.47" width="13.18" height="0.97"/><rect class="cls-1" x="20.71" y="103.68" width="15.44" height="0.97"/><rect class="cls-1" x="20.71" y="105.9" width="14.98" height="0.97"/><polygon class="cls-1" points="38.29 109.03 17.96 109.03 17.96 92.33 21.43 88.7 32.25 88.7 32.25 89.67 21.84 89.67 18.93 92.72 18.93 108.06 37.31 108.06 37.31 105.24 38.29 105.24 38.29 109.03"/><polygon class="cls-1" points="38.29 101.44 37.31 101.44 37.31 89.67 35.82 89.67 35.82 88.7 38.29 88.7 38.29 101.44"/><path class="cls-1" d="M67.76,397H66.54l0-.47a9.64,9.64,0,0,0-8.6-9.16l-.34,0L57.5,387A15.24,15.24,0,0,0,56,383.4l.85-.47a16.74,16.74,0,0,1,1.46,3.53,10.62,10.62,0,0,1,9.11,9.59h.3Z" transform="translate(-15.79 -297.83)"/><path class="cls-1" d="M68.83,414.34H63.66v-1h5.17A8.17,8.17,0,0,0,71,397.31l.26-.94a9.15,9.15,0,0,1-2.41,18Z" transform="translate(-15.79 -297.83)"/><path class="cls-1" d="M55.41,414.34H28.66a9.15,9.15,0,0,1-1.93-18.09,16.34,16.34,0,0,1-.87-5.29A16.56,16.56,0,0,1,55,380.18l-.74.63a15.59,15.59,0,0,0-26.41,15.65L28,397l-.59.09a8.18,8.18,0,0,0,1.21,16.26H55.41Z" transform="translate(-15.79 -297.83)"/><rect class="cls-2" x="39.62" y="110.73" width="8.26" height="24.74"/><path class="cls-1" d="M60.89,433.78H58.18V408.07h2.71Zm-1.74-1h.77V409.05h-.77Z" transform="translate(-15.79 -297.83)"/><path class="cls-2" d="M59.53,379.49A12.54,12.54,0,1,0,72.07,392,12.53,12.53,0,0,0,59.53,379.49Zm0,21.91A9.38,9.38,0,1,1,68.91,392,9.38,9.38,0,0,1,59.53,401.4Z" transform="translate(-15.79 -297.83)"/><path class="cls-1" d="M61.7,409.05H57.37v-5H61.7Zm-3.35-1h2.37v-3H58.35Z" transform="translate(-15.79 -297.83)"/></svg>