<svg version="1.1" xmlns="http://www.w3.org/2000/svg" x="0px" y="0px" width="24" height="24" viewBox="0 0 240 240" xml:space="preserve">
<path fill="currentColor" d="M128,153.6c29.4,0,54-10,55.5-23c-4.4-12.2-9.2-25.6-13.8-38.7c-3.3,9.3-21.2,16-41.6,16c-20.4,0-38.4-6.6-41.6-16c-4.7,13.1-9.5,26.5-13.8,38.7C74,143.6,98.6,153.6,128,153.6z M128,71.2c13.8,0,26.6-4.3,30.4-10.9c-5.2-14.5-9.6-27-12.4-34.9c-1.9-5.2-10.3-8-18-8c-7.6,0-16.1,2.7-18,8c-2.8,7.9-7.2,20.3-12.4,34.9C101.4,66.9,114.2,71.2,128,71.2z M235.9,165.7l-46.2-18.6l5.3,14.8c-0.3,15.7-30.8,28.2-67.1,28.2c-36.3,0-66.8-12.5-67.1-28.2l5.3-14.8l-46.1,18.6c-12.9,5.2-13.5,14.9-1.2,21.4l86.8,46.5c12.3,6.6,32.4,6.6,44.6,0l86.8-46.5C249.4,180.6,248.9,170.9,235.9,165.7z"/>
</svg>