<svg xmlns="http://www.w3.org/2000/svg" xmlns:xlink="http://www.w3.org/1999/xlink" viewBox="0 0 24 24">
  <path d="M12 2C6.5 2 2 6.5 2 12C2 17.5 6.5 22 12 22C17.5 22 22 17.5 22 12C22 6.5 17.5 2 12 2 z M 12 4C16.4 4 20 7.6 20 12C20 16.4 16.4 20 12 20C7.6 20 4 16.4 4 12C4 7.6 7.6 4 12 4 z M 14.755859 8.6425781C13.075859 8.6425781 12.275391 10.130766 12.275391 12.009766C12.285391 13.848766 13.026078 15.357422 14.705078 15.357422C16.364078 15.357422 17.173828 13.979703 17.173828 11.970703C17.173828 10.191703 16.494859 8.6425781 14.755859 8.6425781 z M 7.5878906 8.7519531L7.15625 12.160156C7.42625 12.120156 7.6761563 12.099609 8.0351562 12.099609C9.3341563 12.099609 9.8652344 12.510687 9.8652344 13.179688C9.8652344 13.868688 9.1964063 14.169922 8.5664062 14.169922C7.9774063 14.169922 7.3876563 13.989609 7.0976562 13.849609L6.8261719 14.988281C7.1861719 15.178281 7.8467187 15.359375 8.6367188 15.359375C10.385719 15.359375 11.423828 14.289078 11.423828 13.080078C11.423828 12.321078 11.124766 11.781172 10.634766 11.451172C10.175766 11.121172 9.5457812 10.980469 8.9257812 10.980469C8.7657812 10.980469 8.6458594 10.981953 8.5058594 11.001953L8.6445312 10.001953L11.164062 10.001953L11.164062 8.7519531L7.5878906 8.7519531 z M 14.734375 9.7910156C15.343375 9.7910156 15.652344 10.551234 15.652344 11.990234C15.652344 13.470234 15.333141 14.208984 14.744141 14.208984C14.155141 14.208984 13.794688 13.498766 13.804688 12.009766C13.794688 10.500766 14.175375 9.7910156 14.734375 9.7910156 z" fill="currentColor" />
</svg>